# xmcd
#
# Track frame offsets: 
#        150
#        10452
#        23127
#        34987
#        47835
#        58367
#        69940
#        84395
#        98232
#        107937
#        122965
#        135110
#        144837
#        157220
#        165717
#        178877
#        188587
#        202810
#        214917
#        225772
#        237410
#        248157
#        258907
#        272515
#        286350
#        298057
#        312000
#        322932
#        335865
#        346400
#
# Disc length: 4760 seconds
#
# Revision: 4
# Processed by: cddbd v1.5.2PL0 Copyright (c) Steve Scherf et al.
# Submitted via: ExactAudioCopyFreeDBPlugin 1.0
#
DISCID=b912961e
DTITLE=Various Artist - Blowing the Fuse:  459 R&B Classics, 1945-196
DTITLE=0 [Bear Family]
DYEAR=1956
DGENRE=Rhythm and Blues
TTITLE0=The Cadillacs - Speedoo
TTITLE1=Bo Diddley - Pretty Thing
TTITLE2=The Platters - The Great Pretender
TTITLE3=Ruth Brown and Her Rhythmakers - I Want to Do More
TTITLE4=The Teenagers - Why Do Fools Fall in Love
TTITLE5=The Ernie Freeman Combo - Jivin' Around (Part 1)
TTITLE6=The Teen Queens - Eddie My Love
TTITLE7=Howlin' Wolf - Smokestack Lightnin'
TTITLE8=Bobby Mitchell with Dave Bartholomew's Orchestra - Try Rock an
TTITLE8=d Roll
TTITLE9=Ray Charles - Drown in My Own Tears
TTITLE10=The Moonglows - We Go Together
TTITLE11=Little Richard - Long Tall Sally
TTITLE12=James Brown and The Famous Flames - Please, Please, Please
TTITLE13=Fats Domino - I'm in Love Again
TTITLE14=Joe Turner with Van "Piano Man" Walls - Boogie Woogie Country
TTITLE14=Girl
TTITLE15=Clyde McPhatter - Treasure of Love
TTITLE16=The Cleftones with Jimmy Wright - Little Girl of Mine
TTITLE17=Little Willie John - Fever
TTITLE18=Chuck Berry - Roll Over Beethoven
TTITLE19=Chuck Willis - It's Too Late
TTITLE20=Shirley and Lee - Let the Good Times Roll
TTITLE21=Little Richard - Rip it Up
TTITLE22=The Five Satins - In The Still of the Night
TTITLE23=Bill Doggett - Honkey Tonk, Part 1
TTITLE24=Bill Doggett - Honkey Tonk, Part 2
TTITLE25=The Cadets - Stranded in the Jungle
TTITLE26=The Heartbeats - A Thousands Miles Away
TTITLE27=Jimmy Reed - You've Got Me Dizzy
TTITLE28=Roy Montrell - (Everytime I Hear) That Mellow Saxophone
TTITLE29=Big Walter - Pack Fair and Square
EXTD=
EXTT0=
EXTT1=
EXTT2=
EXTT3=
EXTT4=
EXTT5=
EXTT6=
EXTT7=
EXTT8=
EXTT9=
EXTT10=
EXTT11=
EXTT12=
EXTT13=
EXTT14=
EXTT15=
EXTT16=
EXTT17=
EXTT18=
EXTT19=
EXTT20=
EXTT21=
EXTT22=
EXTT23=
EXTT24=
EXTT25=
EXTT26=
EXTT27=
EXTT28=
EXTT29=
PLAYORDER=
